<mxfile host="app.diagrams.net" modified="2023-10-26T03:17:39.367Z" agent="Mozilla/5.0 (Macintosh; Intel Mac OS X 10_15_7) AppleWebKit/537.36 (KHTML, like Gecko) Chrome/118.0.0.0 Safari/537.36 Edg/118.0.2088.61" etag="UkdAVVxBJaz_PHvCB6uv" version="22.0.6" type="device">
  <diagram name="Page-1" id="N4tYJYFlWmD0ZLhr9ZVW">
    <mxGraphModel dx="531" dy="622" grid="1" gridSize="10" guides="1" tooltips="1" connect="1" arrows="1" fold="1" page="1" pageScale="1" pageWidth="850" pageHeight="1100" math="0" shadow="0">
      <root>
        <mxCell id="0" />
        <mxCell id="1" parent="0" />
        <mxCell id="pGgXp04c1fejDxyBmcXB-1" value="&lt;font style=&quot;font-size: 40px;&quot;&gt;A&lt;/font&gt;" style="ellipse;whiteSpace=wrap;html=1;" vertex="1" parent="1">
          <mxGeometry x="110" y="50" width="40" height="40" as="geometry" />
        </mxCell>
        <mxCell id="pGgXp04c1fejDxyBmcXB-3" value="&lt;font style=&quot;font-size: 40px;&quot;&gt;B&lt;/font&gt;" style="ellipse;whiteSpace=wrap;html=1;" vertex="1" parent="1">
          <mxGeometry x="110" y="150" width="40" height="40" as="geometry" />
        </mxCell>
        <mxCell id="pGgXp04c1fejDxyBmcXB-4" value="&lt;font style=&quot;font-size: 40px;&quot;&gt;H&lt;/font&gt;" style="ellipse;whiteSpace=wrap;html=1;" vertex="1" parent="1">
          <mxGeometry x="350" y="110" width="40" height="40" as="geometry" />
        </mxCell>
        <mxCell id="pGgXp04c1fejDxyBmcXB-5" value="&lt;font style=&quot;font-size: 40px;&quot;&gt;C&lt;/font&gt;" style="ellipse;whiteSpace=wrap;html=1;" vertex="1" parent="1">
          <mxGeometry x="190" y="110" width="40" height="40" as="geometry" />
        </mxCell>
        <mxCell id="pGgXp04c1fejDxyBmcXB-65" style="rounded=0;orthogonalLoop=1;jettySize=auto;html=1;exitX=1;exitY=1;exitDx=0;exitDy=0;entryX=0;entryY=0;entryDx=0;entryDy=0;startArrow=none;startFill=0;endArrow=none;endFill=0;" edge="1" parent="1" source="pGgXp04c1fejDxyBmcXB-1" target="pGgXp04c1fejDxyBmcXB-5">
          <mxGeometry relative="1" as="geometry" />
        </mxCell>
        <mxCell id="pGgXp04c1fejDxyBmcXB-62" style="rounded=0;orthogonalLoop=1;jettySize=auto;html=1;exitX=1;exitY=0.5;exitDx=0;exitDy=0;startArrow=none;startFill=0;endArrow=none;endFill=0;entryX=0;entryY=1;entryDx=0;entryDy=0;" edge="1" parent="1" source="pGgXp04c1fejDxyBmcXB-3" target="pGgXp04c1fejDxyBmcXB-5">
          <mxGeometry relative="1" as="geometry" />
        </mxCell>
        <mxCell id="pGgXp04c1fejDxyBmcXB-6" value="&lt;span style=&quot;font-size: 40px;&quot;&gt;X&lt;/span&gt;" style="ellipse;whiteSpace=wrap;html=1;" vertex="1" parent="1">
          <mxGeometry x="40" y="230" width="40" height="40" as="geometry" />
        </mxCell>
        <mxCell id="pGgXp04c1fejDxyBmcXB-60" style="rounded=0;orthogonalLoop=1;jettySize=auto;html=1;exitX=0;exitY=1;exitDx=0;exitDy=0;entryX=0.5;entryY=0;entryDx=0;entryDy=0;startArrow=none;startFill=0;endArrow=none;endFill=0;" edge="1" parent="1" source="pGgXp04c1fejDxyBmcXB-3" target="pGgXp04c1fejDxyBmcXB-6">
          <mxGeometry relative="1" as="geometry" />
        </mxCell>
        <mxCell id="pGgXp04c1fejDxyBmcXB-7" value="&lt;font style=&quot;font-size: 40px;&quot;&gt;Y&lt;/font&gt;" style="ellipse;whiteSpace=wrap;html=1;" vertex="1" parent="1">
          <mxGeometry x="190" y="230" width="40" height="40" as="geometry" />
        </mxCell>
        <mxCell id="pGgXp04c1fejDxyBmcXB-70" style="rounded=0;orthogonalLoop=1;jettySize=auto;html=1;exitX=1;exitY=1;exitDx=0;exitDy=0;entryX=0;entryY=0;entryDx=0;entryDy=0;startArrow=none;startFill=0;endArrow=none;endFill=0;" edge="1" parent="1" source="pGgXp04c1fejDxyBmcXB-3" target="pGgXp04c1fejDxyBmcXB-7">
          <mxGeometry relative="1" as="geometry" />
        </mxCell>
        <mxCell id="pGgXp04c1fejDxyBmcXB-66" style="rounded=0;orthogonalLoop=1;jettySize=auto;html=1;exitX=0.5;exitY=1;exitDx=0;exitDy=0;entryX=0.5;entryY=0;entryDx=0;entryDy=0;startArrow=none;startFill=0;endArrow=none;endFill=0;" edge="1" parent="1" source="pGgXp04c1fejDxyBmcXB-5" target="pGgXp04c1fejDxyBmcXB-7">
          <mxGeometry relative="1" as="geometry" />
        </mxCell>
        <mxCell id="pGgXp04c1fejDxyBmcXB-8" value="&lt;font style=&quot;font-size: 40px;&quot;&gt;S&lt;/font&gt;" style="ellipse;whiteSpace=wrap;html=1;fillColor=#d80073;strokeColor=#A50040;fontColor=#ffffff;gradientColor=none;fillStyle=solid;" vertex="1" parent="1">
          <mxGeometry x="30" y="110" width="40" height="40" as="geometry" />
        </mxCell>
        <mxCell id="pGgXp04c1fejDxyBmcXB-64" style="rounded=0;orthogonalLoop=1;jettySize=auto;html=1;exitX=0;exitY=1;exitDx=0;exitDy=0;entryX=1;entryY=0;entryDx=0;entryDy=0;startArrow=none;startFill=0;endArrow=none;endFill=0;" edge="1" parent="1" source="pGgXp04c1fejDxyBmcXB-1" target="pGgXp04c1fejDxyBmcXB-8">
          <mxGeometry relative="1" as="geometry" />
        </mxCell>
        <mxCell id="pGgXp04c1fejDxyBmcXB-58" style="rounded=0;orthogonalLoop=1;jettySize=auto;html=1;exitX=0;exitY=0.5;exitDx=0;exitDy=0;entryX=1;entryY=1;entryDx=0;entryDy=0;startArrow=none;startFill=0;endArrow=none;endFill=0;" edge="1" parent="1" source="pGgXp04c1fejDxyBmcXB-3" target="pGgXp04c1fejDxyBmcXB-8">
          <mxGeometry relative="1" as="geometry" />
        </mxCell>
        <mxCell id="pGgXp04c1fejDxyBmcXB-67" style="rounded=0;orthogonalLoop=1;jettySize=auto;html=1;exitX=0;exitY=1;exitDx=0;exitDy=0;entryX=1;entryY=0.5;entryDx=0;entryDy=0;endArrow=none;endFill=0;startArrow=none;startFill=0;" edge="1" parent="1" source="pGgXp04c1fejDxyBmcXB-9" target="pGgXp04c1fejDxyBmcXB-5">
          <mxGeometry relative="1" as="geometry" />
        </mxCell>
        <mxCell id="pGgXp04c1fejDxyBmcXB-73" style="rounded=0;orthogonalLoop=1;jettySize=auto;html=1;exitX=1;exitY=0.5;exitDx=0;exitDy=0;entryX=0;entryY=0.5;entryDx=0;entryDy=0;endArrow=none;endFill=0;" edge="1" parent="1" source="pGgXp04c1fejDxyBmcXB-9" target="pGgXp04c1fejDxyBmcXB-4">
          <mxGeometry relative="1" as="geometry" />
        </mxCell>
        <mxCell id="pGgXp04c1fejDxyBmcXB-9" value="&lt;font style=&quot;font-size: 40px;&quot;&gt;D&lt;/font&gt;" style="ellipse;whiteSpace=wrap;html=1;" vertex="1" parent="1">
          <mxGeometry x="270" y="70" width="40" height="40" as="geometry" />
        </mxCell>
        <mxCell id="pGgXp04c1fejDxyBmcXB-68" style="rounded=0;orthogonalLoop=1;jettySize=auto;html=1;exitX=1;exitY=0;exitDx=0;exitDy=0;entryX=0.5;entryY=0;entryDx=0;entryDy=0;startArrow=none;startFill=0;endArrow=none;endFill=0;" edge="1" parent="1" source="pGgXp04c1fejDxyBmcXB-1" target="pGgXp04c1fejDxyBmcXB-9">
          <mxGeometry relative="1" as="geometry" />
        </mxCell>
        <mxCell id="pGgXp04c1fejDxyBmcXB-10" value="&lt;font style=&quot;font-size: 40px;&quot;&gt;E&lt;/font&gt;" style="ellipse;whiteSpace=wrap;html=1;" vertex="1" parent="1">
          <mxGeometry x="270" y="150" width="40" height="40" as="geometry" />
        </mxCell>
        <mxCell id="pGgXp04c1fejDxyBmcXB-69" style="rounded=0;orthogonalLoop=1;jettySize=auto;html=1;exitX=1;exitY=1;exitDx=0;exitDy=0;entryX=0;entryY=0.5;entryDx=0;entryDy=0;startArrow=none;startFill=0;endArrow=none;endFill=0;" edge="1" parent="1" source="pGgXp04c1fejDxyBmcXB-5" target="pGgXp04c1fejDxyBmcXB-10">
          <mxGeometry relative="1" as="geometry" />
        </mxCell>
        <mxCell id="pGgXp04c1fejDxyBmcXB-71" style="rounded=0;orthogonalLoop=1;jettySize=auto;html=1;exitX=0.5;exitY=1;exitDx=0;exitDy=0;entryX=0.5;entryY=0;entryDx=0;entryDy=0;startArrow=none;startFill=0;endArrow=none;endFill=0;" edge="1" parent="1" source="pGgXp04c1fejDxyBmcXB-9" target="pGgXp04c1fejDxyBmcXB-10">
          <mxGeometry relative="1" as="geometry" />
        </mxCell>
        <mxCell id="pGgXp04c1fejDxyBmcXB-12" value="&lt;font style=&quot;font-size: 40px;&quot;&gt;G&lt;/font&gt;" style="ellipse;whiteSpace=wrap;html=1;fillColor=#60a917;fontColor=#ffffff;strokeColor=#2D7600;" vertex="1" parent="1">
          <mxGeometry x="270" y="230" width="40" height="40" as="geometry" />
        </mxCell>
        <mxCell id="pGgXp04c1fejDxyBmcXB-74" style="rounded=0;orthogonalLoop=1;jettySize=auto;html=1;exitX=0.5;exitY=1;exitDx=0;exitDy=0;entryX=0.5;entryY=0;entryDx=0;entryDy=0;endArrow=none;endFill=0;" edge="1" parent="1" source="pGgXp04c1fejDxyBmcXB-10" target="pGgXp04c1fejDxyBmcXB-12">
          <mxGeometry relative="1" as="geometry" />
        </mxCell>
        <mxCell id="pGgXp04c1fejDxyBmcXB-39" value="&lt;font style=&quot;font-size: 20px;&quot;&gt;10&lt;/font&gt;" style="text;html=1;strokeColor=none;fillColor=none;align=center;verticalAlign=middle;whiteSpace=wrap;rounded=0;" vertex="1" parent="1">
          <mxGeometry x="50" y="75" width="60" height="30" as="geometry" />
        </mxCell>
        <mxCell id="pGgXp04c1fejDxyBmcXB-76" style="rounded=0;orthogonalLoop=1;jettySize=auto;html=1;exitX=0;exitY=1;exitDx=0;exitDy=0;entryX=1;entryY=0.5;entryDx=0;entryDy=0;startArrow=none;startFill=0;endArrow=none;endFill=0;" edge="1" parent="1" source="pGgXp04c1fejDxyBmcXB-44" target="pGgXp04c1fejDxyBmcXB-12">
          <mxGeometry relative="1" as="geometry" />
        </mxCell>
        <mxCell id="pGgXp04c1fejDxyBmcXB-44" value="&lt;font style=&quot;font-size: 40px;&quot;&gt;F&lt;/font&gt;" style="ellipse;whiteSpace=wrap;html=1;" vertex="1" parent="1">
          <mxGeometry x="350" y="190" width="40" height="40" as="geometry" />
        </mxCell>
        <mxCell id="pGgXp04c1fejDxyBmcXB-77" style="rounded=0;orthogonalLoop=1;jettySize=auto;html=1;exitX=0.5;exitY=1;exitDx=0;exitDy=0;entryX=0.5;entryY=0;entryDx=0;entryDy=0;endArrow=none;endFill=0;" edge="1" parent="1" source="pGgXp04c1fejDxyBmcXB-4" target="pGgXp04c1fejDxyBmcXB-44">
          <mxGeometry relative="1" as="geometry" />
        </mxCell>
        <mxCell id="pGgXp04c1fejDxyBmcXB-75" style="rounded=0;orthogonalLoop=1;jettySize=auto;html=1;exitX=1;exitY=0.5;exitDx=0;exitDy=0;entryX=0;entryY=0.5;entryDx=0;entryDy=0;endArrow=none;endFill=0;" edge="1" parent="1" source="pGgXp04c1fejDxyBmcXB-10" target="pGgXp04c1fejDxyBmcXB-44">
          <mxGeometry relative="1" as="geometry" />
        </mxCell>
        <mxCell id="pGgXp04c1fejDxyBmcXB-78" value="&lt;font style=&quot;font-size: 20px;&quot;&gt;15&lt;/font&gt;" style="text;html=1;strokeColor=none;fillColor=none;align=center;verticalAlign=middle;whiteSpace=wrap;rounded=0;" vertex="1" parent="1">
          <mxGeometry x="190" y="30" width="60" height="30" as="geometry" />
        </mxCell>
        <mxCell id="pGgXp04c1fejDxyBmcXB-79" value="&lt;font style=&quot;font-size: 20px;&quot;&gt;9&lt;/font&gt;" style="text;html=1;strokeColor=none;fillColor=none;align=center;verticalAlign=middle;whiteSpace=wrap;rounded=0;" vertex="1" parent="1">
          <mxGeometry x="150" y="80" width="60" height="30" as="geometry" />
        </mxCell>
        <mxCell id="pGgXp04c1fejDxyBmcXB-80" value="&lt;font style=&quot;font-size: 20px;&quot;&gt;4&lt;/font&gt;" style="text;html=1;strokeColor=none;fillColor=none;align=center;verticalAlign=middle;whiteSpace=wrap;rounded=0;" vertex="1" parent="1">
          <mxGeometry x="60" y="130" width="60" height="30" as="geometry" />
        </mxCell>
        <mxCell id="pGgXp04c1fejDxyBmcXB-81" value="&lt;font style=&quot;font-size: 20px;&quot;&gt;20&lt;/font&gt;" style="text;html=1;strokeColor=none;fillColor=none;align=center;verticalAlign=middle;whiteSpace=wrap;rounded=0;" vertex="1" parent="1">
          <mxGeometry x="50" y="180" width="60" height="30" as="geometry" />
        </mxCell>
        <mxCell id="pGgXp04c1fejDxyBmcXB-82" value="&lt;font style=&quot;font-size: 20px;&quot;&gt;20&lt;/font&gt;" style="text;html=1;strokeColor=none;fillColor=none;align=center;verticalAlign=middle;whiteSpace=wrap;rounded=0;" vertex="1" parent="1">
          <mxGeometry x="120" y="200" width="60" height="30" as="geometry" />
        </mxCell>
        <mxCell id="pGgXp04c1fejDxyBmcXB-83" value="&lt;font style=&quot;font-size: 20px;&quot;&gt;8&lt;/font&gt;" style="text;html=1;strokeColor=none;fillColor=none;align=center;verticalAlign=middle;whiteSpace=wrap;rounded=0;" vertex="1" parent="1">
          <mxGeometry x="140" y="130" width="60" height="30" as="geometry" />
        </mxCell>
        <mxCell id="pGgXp04c1fejDxyBmcXB-84" value="&lt;font style=&quot;font-size: 20px;&quot;&gt;20&lt;/font&gt;" style="text;html=1;strokeColor=none;fillColor=none;align=center;verticalAlign=middle;whiteSpace=wrap;rounded=0;" vertex="1" parent="1">
          <mxGeometry x="160" y="170" width="60" height="30" as="geometry" />
        </mxCell>
        <mxCell id="pGgXp04c1fejDxyBmcXB-85" value="&lt;font style=&quot;font-size: 20px;&quot;&gt;7&lt;/font&gt;" style="text;html=1;strokeColor=none;fillColor=none;align=center;verticalAlign=middle;whiteSpace=wrap;rounded=0;" vertex="1" parent="1">
          <mxGeometry x="220" y="90" width="60" height="30" as="geometry" />
        </mxCell>
        <mxCell id="pGgXp04c1fejDxyBmcXB-86" value="&lt;font style=&quot;font-size: 20px;&quot;&gt;9&lt;/font&gt;" style="text;html=1;strokeColor=none;fillColor=none;align=center;verticalAlign=middle;whiteSpace=wrap;rounded=0;" vertex="1" parent="1">
          <mxGeometry x="220" y="130" width="60" height="30" as="geometry" />
        </mxCell>
        <mxCell id="pGgXp04c1fejDxyBmcXB-87" value="&lt;font style=&quot;font-size: 20px;&quot;&gt;10&lt;/font&gt;" style="text;html=1;strokeColor=none;fillColor=none;align=center;verticalAlign=middle;whiteSpace=wrap;rounded=0;" vertex="1" parent="1">
          <mxGeometry x="300" y="210" width="60" height="30" as="geometry" />
        </mxCell>
        <mxCell id="pGgXp04c1fejDxyBmcXB-88" value="&lt;font style=&quot;font-size: 20px;&quot;&gt;6&lt;/font&gt;" style="text;html=1;strokeColor=none;fillColor=none;align=center;verticalAlign=middle;whiteSpace=wrap;rounded=0;" vertex="1" parent="1">
          <mxGeometry x="310" y="90" width="60" height="30" as="geometry" />
        </mxCell>
        <mxCell id="pGgXp04c1fejDxyBmcXB-89" value="&lt;font style=&quot;font-size: 20px;&quot;&gt;6&lt;/font&gt;" style="text;html=1;strokeColor=none;fillColor=none;align=center;verticalAlign=middle;whiteSpace=wrap;rounded=0;" vertex="1" parent="1">
          <mxGeometry x="350" y="150" width="60" height="30" as="geometry" />
        </mxCell>
        <mxCell id="pGgXp04c1fejDxyBmcXB-90" value="&lt;font style=&quot;font-size: 20px;&quot;&gt;8&lt;/font&gt;" style="text;html=1;strokeColor=none;fillColor=none;align=center;verticalAlign=middle;whiteSpace=wrap;rounded=0;" vertex="1" parent="1">
          <mxGeometry x="300" y="160" width="60" height="30" as="geometry" />
        </mxCell>
        <mxCell id="pGgXp04c1fejDxyBmcXB-92" value="&lt;font style=&quot;font-size: 20px;&quot;&gt;5&lt;/font&gt;" style="text;html=1;strokeColor=none;fillColor=none;align=center;verticalAlign=middle;whiteSpace=wrap;rounded=0;" vertex="1" parent="1">
          <mxGeometry x="250" y="200" width="60" height="30" as="geometry" />
        </mxCell>
        <mxCell id="pGgXp04c1fejDxyBmcXB-94" value="&lt;font style=&quot;font-size: 20px;&quot;&gt;7&lt;/font&gt;" style="text;html=1;strokeColor=none;fillColor=none;align=center;verticalAlign=middle;whiteSpace=wrap;rounded=0;" vertex="1" parent="1">
          <mxGeometry x="270" y="115" width="60" height="30" as="geometry" />
        </mxCell>
        <mxCell id="pGgXp04c1fejDxyBmcXB-124" value="" style="group" vertex="1" connectable="0" parent="1">
          <mxGeometry x="390" y="20" width="440" height="80" as="geometry" />
        </mxCell>
        <mxCell id="pGgXp04c1fejDxyBmcXB-96" value="&lt;font style=&quot;font-size: 20px;&quot;&gt;S&lt;/font&gt;" style="text;html=1;align=center;verticalAlign=middle;whiteSpace=wrap;rounded=0;strokeColor=default;" vertex="1" parent="pGgXp04c1fejDxyBmcXB-124">
          <mxGeometry width="40" height="40" as="geometry" />
        </mxCell>
        <mxCell id="pGgXp04c1fejDxyBmcXB-97" value="&lt;font style=&quot;font-size: 20px;&quot;&gt;A&lt;/font&gt;" style="text;html=1;align=center;verticalAlign=middle;whiteSpace=wrap;rounded=0;strokeColor=default;" vertex="1" parent="pGgXp04c1fejDxyBmcXB-124">
          <mxGeometry x="40" width="40" height="40" as="geometry" />
        </mxCell>
        <mxCell id="pGgXp04c1fejDxyBmcXB-100" value="&lt;font style=&quot;font-size: 20px;&quot;&gt;B&lt;/font&gt;" style="text;html=1;align=center;verticalAlign=middle;whiteSpace=wrap;rounded=0;strokeColor=default;" vertex="1" parent="pGgXp04c1fejDxyBmcXB-124">
          <mxGeometry x="80" width="40" height="40" as="geometry" />
        </mxCell>
        <mxCell id="pGgXp04c1fejDxyBmcXB-101" value="&lt;font style=&quot;font-size: 20px;&quot;&gt;D&lt;/font&gt;" style="text;html=1;align=center;verticalAlign=middle;whiteSpace=wrap;rounded=0;strokeColor=default;" vertex="1" parent="pGgXp04c1fejDxyBmcXB-124">
          <mxGeometry x="160" width="40" height="40" as="geometry" />
        </mxCell>
        <mxCell id="pGgXp04c1fejDxyBmcXB-102" value="&lt;font style=&quot;font-size: 20px;&quot;&gt;E&lt;/font&gt;" style="text;html=1;align=center;verticalAlign=middle;whiteSpace=wrap;rounded=0;strokeColor=default;" vertex="1" parent="pGgXp04c1fejDxyBmcXB-124">
          <mxGeometry x="200" width="40" height="40" as="geometry" />
        </mxCell>
        <mxCell id="pGgXp04c1fejDxyBmcXB-103" value="&lt;font style=&quot;font-size: 20px;&quot;&gt;F&lt;/font&gt;" style="text;html=1;align=center;verticalAlign=middle;whiteSpace=wrap;rounded=0;strokeColor=default;" vertex="1" parent="pGgXp04c1fejDxyBmcXB-124">
          <mxGeometry x="240" width="40" height="40" as="geometry" />
        </mxCell>
        <mxCell id="pGgXp04c1fejDxyBmcXB-104" value="&lt;font style=&quot;font-size: 20px;&quot;&gt;G&lt;/font&gt;" style="text;html=1;align=center;verticalAlign=middle;whiteSpace=wrap;rounded=0;strokeColor=default;" vertex="1" parent="pGgXp04c1fejDxyBmcXB-124">
          <mxGeometry x="280" width="40" height="40" as="geometry" />
        </mxCell>
        <mxCell id="pGgXp04c1fejDxyBmcXB-105" value="&lt;span style=&quot;font-size: 20px;&quot;&gt;H&lt;/span&gt;" style="text;html=1;align=center;verticalAlign=middle;whiteSpace=wrap;rounded=0;strokeColor=default;" vertex="1" parent="pGgXp04c1fejDxyBmcXB-124">
          <mxGeometry x="320" width="40" height="40" as="geometry" />
        </mxCell>
        <mxCell id="pGgXp04c1fejDxyBmcXB-106" value="&lt;font style=&quot;font-size: 20px;&quot;&gt;X&lt;/font&gt;" style="text;html=1;align=center;verticalAlign=middle;whiteSpace=wrap;rounded=0;strokeColor=default;" vertex="1" parent="pGgXp04c1fejDxyBmcXB-124">
          <mxGeometry x="360" width="40" height="40" as="geometry" />
        </mxCell>
        <mxCell id="pGgXp04c1fejDxyBmcXB-107" value="&lt;font style=&quot;font-size: 20px;&quot;&gt;Y&lt;/font&gt;" style="text;html=1;align=center;verticalAlign=middle;whiteSpace=wrap;rounded=0;strokeColor=default;" vertex="1" parent="pGgXp04c1fejDxyBmcXB-124">
          <mxGeometry x="400" width="40" height="40" as="geometry" />
        </mxCell>
        <mxCell id="pGgXp04c1fejDxyBmcXB-108" value="&lt;font style=&quot;font-size: 20px;&quot;&gt;C&lt;/font&gt;" style="text;html=1;align=center;verticalAlign=middle;whiteSpace=wrap;rounded=0;strokeColor=default;" vertex="1" parent="pGgXp04c1fejDxyBmcXB-124">
          <mxGeometry x="120" width="40" height="40" as="geometry" />
        </mxCell>
        <mxCell id="pGgXp04c1fejDxyBmcXB-109" value="&lt;font style=&quot;font-size: 20px;&quot;&gt;25&lt;/font&gt;" style="text;html=1;align=center;verticalAlign=middle;whiteSpace=wrap;rounded=0;strokeColor=default;" vertex="1" parent="pGgXp04c1fejDxyBmcXB-124">
          <mxGeometry y="40" width="40" height="40" as="geometry" />
        </mxCell>
        <mxCell id="pGgXp04c1fejDxyBmcXB-110" value="&lt;font style=&quot;font-size: 20px;&quot;&gt;30&lt;/font&gt;" style="text;html=1;align=center;verticalAlign=middle;whiteSpace=wrap;rounded=0;strokeColor=default;" vertex="1" parent="pGgXp04c1fejDxyBmcXB-124">
          <mxGeometry x="400" y="40" width="40" height="40" as="geometry" />
        </mxCell>
        <mxCell id="pGgXp04c1fejDxyBmcXB-111" value="&lt;font style=&quot;font-size: 20px;&quot;&gt;34&lt;/font&gt;" style="text;html=1;align=center;verticalAlign=middle;whiteSpace=wrap;rounded=0;strokeColor=default;" vertex="1" parent="pGgXp04c1fejDxyBmcXB-124">
          <mxGeometry x="360" y="40" width="40" height="40" as="geometry" />
        </mxCell>
        <mxCell id="pGgXp04c1fejDxyBmcXB-112" value="&lt;span style=&quot;font-size: 20px;&quot;&gt;2&lt;/span&gt;" style="text;html=1;align=center;verticalAlign=middle;whiteSpace=wrap;rounded=0;strokeColor=default;" vertex="1" parent="pGgXp04c1fejDxyBmcXB-124">
          <mxGeometry x="320" y="40" width="40" height="40" as="geometry" />
        </mxCell>
        <mxCell id="pGgXp04c1fejDxyBmcXB-113" value="&lt;font style=&quot;font-size: 20px;&quot;&gt;0&lt;/font&gt;" style="text;html=1;align=center;verticalAlign=middle;whiteSpace=wrap;rounded=0;strokeColor=default;" vertex="1" parent="pGgXp04c1fejDxyBmcXB-124">
          <mxGeometry x="280" y="40" width="40" height="40" as="geometry" />
        </mxCell>
        <mxCell id="pGgXp04c1fejDxyBmcXB-114" value="&lt;font style=&quot;font-size: 20px;&quot;&gt;9&lt;/font&gt;" style="text;html=1;align=center;verticalAlign=middle;whiteSpace=wrap;rounded=0;strokeColor=default;" vertex="1" parent="pGgXp04c1fejDxyBmcXB-124">
          <mxGeometry x="240" y="40" width="40" height="40" as="geometry" />
        </mxCell>
        <mxCell id="pGgXp04c1fejDxyBmcXB-115" value="&lt;font style=&quot;font-size: 20px;&quot;&gt;3&lt;/font&gt;" style="text;html=1;align=center;verticalAlign=middle;whiteSpace=wrap;rounded=0;strokeColor=default;" vertex="1" parent="pGgXp04c1fejDxyBmcXB-124">
          <mxGeometry x="200" y="40" width="40" height="40" as="geometry" />
        </mxCell>
        <mxCell id="pGgXp04c1fejDxyBmcXB-116" value="&lt;font style=&quot;font-size: 20px;&quot;&gt;8&lt;/font&gt;" style="text;html=1;align=center;verticalAlign=middle;whiteSpace=wrap;rounded=0;strokeColor=default;" vertex="1" parent="pGgXp04c1fejDxyBmcXB-124">
          <mxGeometry x="160" y="40" width="40" height="40" as="geometry" />
        </mxCell>
        <mxCell id="pGgXp04c1fejDxyBmcXB-117" value="&lt;font style=&quot;font-size: 20px;&quot;&gt;14&lt;/font&gt;" style="text;html=1;align=center;verticalAlign=middle;whiteSpace=wrap;rounded=0;strokeColor=default;" vertex="1" parent="pGgXp04c1fejDxyBmcXB-124">
          <mxGeometry x="120" y="40" width="40" height="40" as="geometry" />
        </mxCell>
        <mxCell id="pGgXp04c1fejDxyBmcXB-118" value="&lt;font style=&quot;font-size: 20px;&quot;&gt;22&lt;/font&gt;" style="text;html=1;align=center;verticalAlign=middle;whiteSpace=wrap;rounded=0;strokeColor=default;" vertex="1" parent="pGgXp04c1fejDxyBmcXB-124">
          <mxGeometry x="80" y="40" width="40" height="40" as="geometry" />
        </mxCell>
        <mxCell id="pGgXp04c1fejDxyBmcXB-119" value="&lt;font style=&quot;font-size: 20px;&quot;&gt;20&lt;/font&gt;" style="text;html=1;align=center;verticalAlign=middle;whiteSpace=wrap;rounded=0;strokeColor=default;" vertex="1" parent="pGgXp04c1fejDxyBmcXB-124">
          <mxGeometry x="40" y="40" width="40" height="40" as="geometry" />
        </mxCell>
        <mxCell id="pGgXp04c1fejDxyBmcXB-189" value="" style="group" vertex="1" connectable="0" parent="1">
          <mxGeometry x="30" y="600" width="820" height="360" as="geometry" />
        </mxCell>
        <mxCell id="pGgXp04c1fejDxyBmcXB-122" value="&lt;font color=&quot;#511cff&quot; style=&quot;font-size: 40px;&quot;&gt;4&lt;/font&gt;" style="ellipse;whiteSpace=wrap;html=1;" vertex="1" parent="pGgXp04c1fejDxyBmcXB-189">
          <mxGeometry x="390" width="40" height="40" as="geometry" />
        </mxCell>
        <mxCell id="pGgXp04c1fejDxyBmcXB-126" value="&lt;font style=&quot;font-size: 40px;&quot;&gt;3&lt;/font&gt;" style="ellipse;whiteSpace=wrap;html=1;" vertex="1" parent="pGgXp04c1fejDxyBmcXB-189">
          <mxGeometry y="320" width="40" height="40" as="geometry" />
        </mxCell>
        <mxCell id="pGgXp04c1fejDxyBmcXB-160" style="rounded=0;orthogonalLoop=1;jettySize=auto;html=1;exitX=0.5;exitY=0;exitDx=0;exitDy=0;endArrow=none;endFill=0;" edge="1" parent="pGgXp04c1fejDxyBmcXB-189" source="pGgXp04c1fejDxyBmcXB-127">
          <mxGeometry relative="1" as="geometry">
            <mxPoint x="50" y="280" as="targetPoint" />
          </mxGeometry>
        </mxCell>
        <mxCell id="pGgXp04c1fejDxyBmcXB-127" value="&lt;font style=&quot;font-size: 40px;&quot;&gt;2&lt;/font&gt;" style="ellipse;whiteSpace=wrap;html=1;" vertex="1" parent="pGgXp04c1fejDxyBmcXB-189">
          <mxGeometry x="52" y="320" width="40" height="40" as="geometry" />
        </mxCell>
        <mxCell id="pGgXp04c1fejDxyBmcXB-128" value="&lt;font style=&quot;font-size: 40px;&quot;&gt;1&lt;/font&gt;" style="ellipse;whiteSpace=wrap;html=1;" vertex="1" parent="pGgXp04c1fejDxyBmcXB-189">
          <mxGeometry x="104" y="320" width="40" height="40" as="geometry" />
        </mxCell>
        <mxCell id="pGgXp04c1fejDxyBmcXB-129" value="&lt;font style=&quot;font-size: 40px;&quot;&gt;0&lt;/font&gt;" style="ellipse;whiteSpace=wrap;html=1;" vertex="1" parent="pGgXp04c1fejDxyBmcXB-189">
          <mxGeometry x="156" y="320" width="40" height="40" as="geometry" />
        </mxCell>
        <mxCell id="pGgXp04c1fejDxyBmcXB-130" value="&lt;font style=&quot;font-size: 40px;&quot;&gt;4&lt;/font&gt;" style="ellipse;whiteSpace=wrap;html=1;" vertex="1" parent="pGgXp04c1fejDxyBmcXB-189">
          <mxGeometry x="209" y="320" width="40" height="40" as="geometry" />
        </mxCell>
        <mxCell id="pGgXp04c1fejDxyBmcXB-131" value="&lt;font style=&quot;font-size: 40px;&quot;&gt;3&lt;/font&gt;" style="ellipse;whiteSpace=wrap;html=1;" vertex="1" parent="pGgXp04c1fejDxyBmcXB-189">
          <mxGeometry x="261" y="320" width="40" height="40" as="geometry" />
        </mxCell>
        <mxCell id="pGgXp04c1fejDxyBmcXB-132" value="&lt;font style=&quot;font-size: 40px;&quot;&gt;5&lt;/font&gt;" style="ellipse;whiteSpace=wrap;html=1;" vertex="1" parent="pGgXp04c1fejDxyBmcXB-189">
          <mxGeometry x="313" y="320" width="40" height="40" as="geometry" />
        </mxCell>
        <mxCell id="pGgXp04c1fejDxyBmcXB-133" value="&lt;font style=&quot;font-size: 40px;&quot;&gt;8&lt;/font&gt;" style="ellipse;whiteSpace=wrap;html=1;" vertex="1" parent="pGgXp04c1fejDxyBmcXB-189">
          <mxGeometry x="365" y="320" width="40" height="40" as="geometry" />
        </mxCell>
        <mxCell id="pGgXp04c1fejDxyBmcXB-134" value="&lt;font style=&quot;font-size: 40px;&quot;&gt;4&lt;/font&gt;" style="ellipse;whiteSpace=wrap;html=1;" vertex="1" parent="pGgXp04c1fejDxyBmcXB-189">
          <mxGeometry x="417" y="240" width="40" height="40" as="geometry" />
        </mxCell>
        <mxCell id="pGgXp04c1fejDxyBmcXB-135" value="&lt;font style=&quot;font-size: 40px;&quot;&gt;3&lt;/font&gt;" style="ellipse;whiteSpace=wrap;html=1;" vertex="1" parent="pGgXp04c1fejDxyBmcXB-189">
          <mxGeometry x="469" y="240" width="40" height="40" as="geometry" />
        </mxCell>
        <mxCell id="pGgXp04c1fejDxyBmcXB-136" value="&lt;font style=&quot;font-size: 40px;&quot;&gt;5&lt;/font&gt;" style="ellipse;whiteSpace=wrap;html=1;" vertex="1" parent="pGgXp04c1fejDxyBmcXB-189">
          <mxGeometry x="521" y="320" width="40" height="40" as="geometry" />
        </mxCell>
        <mxCell id="pGgXp04c1fejDxyBmcXB-137" value="&lt;font style=&quot;font-size: 40px;&quot;&gt;7&lt;/font&gt;" style="ellipse;whiteSpace=wrap;html=1;" vertex="1" parent="pGgXp04c1fejDxyBmcXB-189">
          <mxGeometry x="574" y="320" width="40" height="40" as="geometry" />
        </mxCell>
        <mxCell id="pGgXp04c1fejDxyBmcXB-138" value="&lt;font style=&quot;font-size: 40px;&quot;&gt;6&lt;/font&gt;" style="ellipse;whiteSpace=wrap;html=1;" vertex="1" parent="pGgXp04c1fejDxyBmcXB-189">
          <mxGeometry x="626" y="320" width="40" height="40" as="geometry" />
        </mxCell>
        <mxCell id="pGgXp04c1fejDxyBmcXB-139" value="&lt;font style=&quot;font-size: 40px;&quot;&gt;8&lt;/font&gt;" style="ellipse;whiteSpace=wrap;html=1;" vertex="1" parent="pGgXp04c1fejDxyBmcXB-189">
          <mxGeometry x="678" y="320" width="40" height="40" as="geometry" />
        </mxCell>
        <mxCell id="pGgXp04c1fejDxyBmcXB-140" value="&lt;font style=&quot;font-size: 40px;&quot;&gt;6&lt;/font&gt;" style="ellipse;whiteSpace=wrap;html=1;" vertex="1" parent="pGgXp04c1fejDxyBmcXB-189">
          <mxGeometry x="730" y="240" width="40" height="40" as="geometry" />
        </mxCell>
        <mxCell id="pGgXp04c1fejDxyBmcXB-180" style="rounded=0;orthogonalLoop=1;jettySize=auto;html=1;exitX=0.5;exitY=0;exitDx=0;exitDy=0;endArrow=none;endFill=0;" edge="1" parent="pGgXp04c1fejDxyBmcXB-189" source="pGgXp04c1fejDxyBmcXB-141">
          <mxGeometry relative="1" as="geometry">
            <mxPoint x="770" y="200" as="targetPoint" />
          </mxGeometry>
        </mxCell>
        <mxCell id="pGgXp04c1fejDxyBmcXB-141" value="&lt;font style=&quot;font-size: 40px;&quot;&gt;3&lt;/font&gt;" style="ellipse;whiteSpace=wrap;html=1;" vertex="1" parent="pGgXp04c1fejDxyBmcXB-189">
          <mxGeometry x="780" y="240" width="40" height="40" as="geometry" />
        </mxCell>
        <mxCell id="pGgXp04c1fejDxyBmcXB-158" style="rounded=0;orthogonalLoop=1;jettySize=auto;html=1;exitX=0.5;exitY=1;exitDx=0;exitDy=0;entryX=0.5;entryY=0;entryDx=0;entryDy=0;endArrow=none;endFill=0;" edge="1" parent="pGgXp04c1fejDxyBmcXB-189" source="pGgXp04c1fejDxyBmcXB-143" target="pGgXp04c1fejDxyBmcXB-126">
          <mxGeometry relative="1" as="geometry" />
        </mxCell>
        <mxCell id="pGgXp04c1fejDxyBmcXB-143" value="&lt;font style=&quot;font-size: 40px;&quot;&gt;2&lt;/font&gt;" style="ellipse;whiteSpace=wrap;html=1;fontSize=40;fontColor=#511CFF;" vertex="1" parent="pGgXp04c1fejDxyBmcXB-189">
          <mxGeometry x="30" y="240" width="40" height="40" as="geometry" />
        </mxCell>
        <mxCell id="pGgXp04c1fejDxyBmcXB-161" style="rounded=0;orthogonalLoop=1;jettySize=auto;html=1;exitX=0.5;exitY=1;exitDx=0;exitDy=0;entryX=0.5;entryY=0;entryDx=0;entryDy=0;endArrow=none;endFill=0;" edge="1" parent="pGgXp04c1fejDxyBmcXB-189" source="pGgXp04c1fejDxyBmcXB-144" target="pGgXp04c1fejDxyBmcXB-128">
          <mxGeometry relative="1" as="geometry" />
        </mxCell>
        <mxCell id="pGgXp04c1fejDxyBmcXB-162" style="rounded=0;orthogonalLoop=1;jettySize=auto;html=1;exitX=0.5;exitY=1;exitDx=0;exitDy=0;entryX=0.5;entryY=0;entryDx=0;entryDy=0;endArrow=none;endFill=0;" edge="1" parent="pGgXp04c1fejDxyBmcXB-189" source="pGgXp04c1fejDxyBmcXB-144" target="pGgXp04c1fejDxyBmcXB-129">
          <mxGeometry relative="1" as="geometry" />
        </mxCell>
        <mxCell id="pGgXp04c1fejDxyBmcXB-172" style="rounded=0;orthogonalLoop=1;jettySize=auto;html=1;exitX=0.5;exitY=0;exitDx=0;exitDy=0;endArrow=none;endFill=0;" edge="1" parent="pGgXp04c1fejDxyBmcXB-189" source="pGgXp04c1fejDxyBmcXB-144">
          <mxGeometry relative="1" as="geometry">
            <mxPoint x="110" y="200" as="targetPoint" />
          </mxGeometry>
        </mxCell>
        <mxCell id="pGgXp04c1fejDxyBmcXB-144" value="1" style="ellipse;whiteSpace=wrap;html=1;fontSize=40;fontColor=#511CFF;" vertex="1" parent="pGgXp04c1fejDxyBmcXB-189">
          <mxGeometry x="130" y="240" width="40" height="40" as="geometry" />
        </mxCell>
        <mxCell id="pGgXp04c1fejDxyBmcXB-165" style="rounded=0;orthogonalLoop=1;jettySize=auto;html=1;exitX=0.5;exitY=1;exitDx=0;exitDy=0;entryX=0.5;entryY=0;entryDx=0;entryDy=0;endArrow=none;endFill=0;" edge="1" parent="pGgXp04c1fejDxyBmcXB-189" source="pGgXp04c1fejDxyBmcXB-145" target="pGgXp04c1fejDxyBmcXB-132">
          <mxGeometry relative="1" as="geometry" />
        </mxCell>
        <mxCell id="pGgXp04c1fejDxyBmcXB-166" style="rounded=0;orthogonalLoop=1;jettySize=auto;html=1;exitX=0.5;exitY=1;exitDx=0;exitDy=0;entryX=0.5;entryY=0;entryDx=0;entryDy=0;endArrow=none;endFill=0;" edge="1" parent="pGgXp04c1fejDxyBmcXB-189" source="pGgXp04c1fejDxyBmcXB-145" target="pGgXp04c1fejDxyBmcXB-133">
          <mxGeometry relative="1" as="geometry" />
        </mxCell>
        <mxCell id="pGgXp04c1fejDxyBmcXB-145" value="5" style="ellipse;whiteSpace=wrap;html=1;fontColor=#FF00FF;fontSize=40;" vertex="1" parent="pGgXp04c1fejDxyBmcXB-189">
          <mxGeometry x="340" y="240" width="40" height="40" as="geometry" />
        </mxCell>
        <mxCell id="pGgXp04c1fejDxyBmcXB-163" style="rounded=0;orthogonalLoop=1;jettySize=auto;html=1;exitX=0.5;exitY=1;exitDx=0;exitDy=0;entryX=0.5;entryY=0;entryDx=0;entryDy=0;endArrow=none;endFill=0;" edge="1" parent="pGgXp04c1fejDxyBmcXB-189" source="pGgXp04c1fejDxyBmcXB-146" target="pGgXp04c1fejDxyBmcXB-130">
          <mxGeometry relative="1" as="geometry" />
        </mxCell>
        <mxCell id="pGgXp04c1fejDxyBmcXB-164" style="rounded=0;orthogonalLoop=1;jettySize=auto;html=1;exitX=0.5;exitY=1;exitDx=0;exitDy=0;entryX=0.5;entryY=0;entryDx=0;entryDy=0;endArrow=none;endFill=0;" edge="1" parent="pGgXp04c1fejDxyBmcXB-189" source="pGgXp04c1fejDxyBmcXB-146" target="pGgXp04c1fejDxyBmcXB-131">
          <mxGeometry relative="1" as="geometry" />
        </mxCell>
        <mxCell id="pGgXp04c1fejDxyBmcXB-146" value="3" style="ellipse;whiteSpace=wrap;html=1;fontSize=40;fontColor=#511CFF;" vertex="1" parent="pGgXp04c1fejDxyBmcXB-189">
          <mxGeometry x="240" y="240" width="40" height="40" as="geometry" />
        </mxCell>
        <mxCell id="pGgXp04c1fejDxyBmcXB-167" style="rounded=0;orthogonalLoop=1;jettySize=auto;html=1;exitX=0.5;exitY=1;exitDx=0;exitDy=0;entryX=0.5;entryY=0;entryDx=0;entryDy=0;endArrow=none;endFill=0;" edge="1" parent="pGgXp04c1fejDxyBmcXB-189" source="pGgXp04c1fejDxyBmcXB-147" target="pGgXp04c1fejDxyBmcXB-136">
          <mxGeometry relative="1" as="geometry" />
        </mxCell>
        <mxCell id="pGgXp04c1fejDxyBmcXB-168" style="rounded=0;orthogonalLoop=1;jettySize=auto;html=1;exitX=0.5;exitY=1;exitDx=0;exitDy=0;entryX=0.5;entryY=0;entryDx=0;entryDy=0;endArrow=none;endFill=0;" edge="1" parent="pGgXp04c1fejDxyBmcXB-189" source="pGgXp04c1fejDxyBmcXB-147" target="pGgXp04c1fejDxyBmcXB-137">
          <mxGeometry relative="1" as="geometry" />
        </mxCell>
        <mxCell id="pGgXp04c1fejDxyBmcXB-147" value="5" style="ellipse;whiteSpace=wrap;html=1;fontSize=40;fontColor=#511CFF;" vertex="1" parent="pGgXp04c1fejDxyBmcXB-189">
          <mxGeometry x="540" y="240" width="40" height="40" as="geometry" />
        </mxCell>
        <mxCell id="pGgXp04c1fejDxyBmcXB-169" style="rounded=0;orthogonalLoop=1;jettySize=auto;html=1;exitX=0.5;exitY=1;exitDx=0;exitDy=0;entryX=0.5;entryY=0;entryDx=0;entryDy=0;endArrow=none;endFill=0;" edge="1" parent="pGgXp04c1fejDxyBmcXB-189" source="pGgXp04c1fejDxyBmcXB-148" target="pGgXp04c1fejDxyBmcXB-138">
          <mxGeometry relative="1" as="geometry" />
        </mxCell>
        <mxCell id="pGgXp04c1fejDxyBmcXB-148" value="6" style="ellipse;whiteSpace=wrap;html=1;fontColor=#FF00FF;fontSize=40;" vertex="1" parent="pGgXp04c1fejDxyBmcXB-189">
          <mxGeometry x="650" y="240" width="40" height="40" as="geometry" />
        </mxCell>
        <mxCell id="pGgXp04c1fejDxyBmcXB-171" style="rounded=0;orthogonalLoop=1;jettySize=auto;html=1;exitX=0.5;exitY=1;exitDx=0;exitDy=0;entryX=0.5;entryY=0;entryDx=0;entryDy=0;endArrow=none;endFill=0;" edge="1" parent="pGgXp04c1fejDxyBmcXB-189" source="pGgXp04c1fejDxyBmcXB-149" target="pGgXp04c1fejDxyBmcXB-143">
          <mxGeometry relative="1" as="geometry" />
        </mxCell>
        <mxCell id="pGgXp04c1fejDxyBmcXB-149" value="2" style="ellipse;whiteSpace=wrap;html=1;fontSize=40;fontColor=#511CFF;" vertex="1" parent="pGgXp04c1fejDxyBmcXB-189">
          <mxGeometry x="90" y="160" width="40" height="40" as="geometry" />
        </mxCell>
        <mxCell id="pGgXp04c1fejDxyBmcXB-173" style="rounded=0;orthogonalLoop=1;jettySize=auto;html=1;exitX=0.5;exitY=1;exitDx=0;exitDy=0;entryX=0.5;entryY=0;entryDx=0;entryDy=0;endArrow=none;endFill=0;" edge="1" parent="pGgXp04c1fejDxyBmcXB-189" source="pGgXp04c1fejDxyBmcXB-150" target="pGgXp04c1fejDxyBmcXB-146">
          <mxGeometry relative="1" as="geometry" />
        </mxCell>
        <mxCell id="pGgXp04c1fejDxyBmcXB-150" value="5" style="ellipse;whiteSpace=wrap;html=1;fontSize=40;fontColor=#FF00FF;" vertex="1" parent="pGgXp04c1fejDxyBmcXB-189">
          <mxGeometry x="290" y="160" width="40" height="40" as="geometry" />
        </mxCell>
        <mxCell id="pGgXp04c1fejDxyBmcXB-174" style="rounded=0;orthogonalLoop=1;jettySize=auto;html=1;exitX=0.5;exitY=0;exitDx=0;exitDy=0;entryX=0.5;entryY=1;entryDx=0;entryDy=0;endArrow=none;endFill=0;" edge="1" parent="pGgXp04c1fejDxyBmcXB-189" source="pGgXp04c1fejDxyBmcXB-145" target="pGgXp04c1fejDxyBmcXB-150">
          <mxGeometry relative="1" as="geometry" />
        </mxCell>
        <mxCell id="pGgXp04c1fejDxyBmcXB-175" style="rounded=0;orthogonalLoop=1;jettySize=auto;html=1;exitX=0.5;exitY=1;exitDx=0;exitDy=0;entryX=0.5;entryY=0;entryDx=0;entryDy=0;endArrow=none;endFill=0;" edge="1" parent="pGgXp04c1fejDxyBmcXB-189" source="pGgXp04c1fejDxyBmcXB-151" target="pGgXp04c1fejDxyBmcXB-134">
          <mxGeometry relative="1" as="geometry" />
        </mxCell>
        <mxCell id="pGgXp04c1fejDxyBmcXB-176" style="rounded=0;orthogonalLoop=1;jettySize=auto;html=1;exitX=0.5;exitY=1;exitDx=0;exitDy=0;entryX=0.5;entryY=0;entryDx=0;entryDy=0;endArrow=none;endFill=0;" edge="1" parent="pGgXp04c1fejDxyBmcXB-189" source="pGgXp04c1fejDxyBmcXB-151" target="pGgXp04c1fejDxyBmcXB-135">
          <mxGeometry relative="1" as="geometry" />
        </mxCell>
        <mxCell id="pGgXp04c1fejDxyBmcXB-151" value="4" style="ellipse;whiteSpace=wrap;html=1;fontSize=40;fontColor=#511CFF;" vertex="1" parent="pGgXp04c1fejDxyBmcXB-189">
          <mxGeometry x="450" y="160" width="40" height="40" as="geometry" />
        </mxCell>
        <mxCell id="pGgXp04c1fejDxyBmcXB-177" style="rounded=0;orthogonalLoop=1;jettySize=auto;html=1;exitX=0.5;exitY=1;exitDx=0;exitDy=0;entryX=0.5;entryY=0;entryDx=0;entryDy=0;endArrow=none;endFill=0;" edge="1" parent="pGgXp04c1fejDxyBmcXB-189" source="pGgXp04c1fejDxyBmcXB-152" target="pGgXp04c1fejDxyBmcXB-147">
          <mxGeometry relative="1" as="geometry" />
        </mxCell>
        <mxCell id="pGgXp04c1fejDxyBmcXB-178" style="rounded=0;orthogonalLoop=1;jettySize=auto;html=1;exitX=0.5;exitY=1;exitDx=0;exitDy=0;entryX=0.5;entryY=0;entryDx=0;entryDy=0;endArrow=none;endFill=0;" edge="1" parent="pGgXp04c1fejDxyBmcXB-189" source="pGgXp04c1fejDxyBmcXB-152" target="pGgXp04c1fejDxyBmcXB-148">
          <mxGeometry relative="1" as="geometry" />
        </mxCell>
        <mxCell id="pGgXp04c1fejDxyBmcXB-185" style="rounded=0;orthogonalLoop=1;jettySize=auto;html=1;exitX=0.5;exitY=0;exitDx=0;exitDy=0;endArrow=none;endFill=0;" edge="1" parent="pGgXp04c1fejDxyBmcXB-189" source="pGgXp04c1fejDxyBmcXB-152">
          <mxGeometry relative="1" as="geometry">
            <mxPoint x="550" y="120" as="targetPoint" />
          </mxGeometry>
        </mxCell>
        <mxCell id="pGgXp04c1fejDxyBmcXB-152" value="6" style="ellipse;whiteSpace=wrap;html=1;fontSize=40;fontColor=#FF00FF;" vertex="1" parent="pGgXp04c1fejDxyBmcXB-189">
          <mxGeometry x="590" y="160" width="40" height="40" as="geometry" />
        </mxCell>
        <mxCell id="pGgXp04c1fejDxyBmcXB-179" style="rounded=0;orthogonalLoop=1;jettySize=auto;html=1;exitX=0.5;exitY=1;exitDx=0;exitDy=0;entryX=0.5;entryY=0;entryDx=0;entryDy=0;endArrow=none;endFill=0;" edge="1" parent="pGgXp04c1fejDxyBmcXB-189" source="pGgXp04c1fejDxyBmcXB-153" target="pGgXp04c1fejDxyBmcXB-140">
          <mxGeometry relative="1" as="geometry" />
        </mxCell>
        <mxCell id="pGgXp04c1fejDxyBmcXB-153" value="6" style="ellipse;whiteSpace=wrap;html=1;fontSize=40;fontColor=#511CFF;" vertex="1" parent="pGgXp04c1fejDxyBmcXB-189">
          <mxGeometry x="750" y="160" width="40" height="40" as="geometry" />
        </mxCell>
        <mxCell id="pGgXp04c1fejDxyBmcXB-181" style="rounded=0;orthogonalLoop=1;jettySize=auto;html=1;exitX=0.5;exitY=1;exitDx=0;exitDy=0;entryX=0.5;entryY=0;entryDx=0;entryDy=0;endArrow=none;endFill=0;" edge="1" parent="pGgXp04c1fejDxyBmcXB-189" source="pGgXp04c1fejDxyBmcXB-154" target="pGgXp04c1fejDxyBmcXB-149">
          <mxGeometry relative="1" as="geometry" />
        </mxCell>
        <mxCell id="pGgXp04c1fejDxyBmcXB-183" style="rounded=0;orthogonalLoop=1;jettySize=auto;html=1;exitX=0.5;exitY=0;exitDx=0;exitDy=0;entryX=0.5;entryY=1;entryDx=0;entryDy=0;endArrow=none;endFill=0;" edge="1" parent="pGgXp04c1fejDxyBmcXB-189" source="pGgXp04c1fejDxyBmcXB-154" target="pGgXp04c1fejDxyBmcXB-122">
          <mxGeometry relative="1" as="geometry" />
        </mxCell>
        <mxCell id="pGgXp04c1fejDxyBmcXB-154" value="2" style="ellipse;whiteSpace=wrap;html=1;fontSize=40;fontColor=#511CFF;" vertex="1" parent="pGgXp04c1fejDxyBmcXB-189">
          <mxGeometry x="209" y="80" width="40" height="40" as="geometry" />
        </mxCell>
        <mxCell id="pGgXp04c1fejDxyBmcXB-184" style="rounded=0;orthogonalLoop=1;jettySize=auto;html=1;exitX=0.5;exitY=1;exitDx=0;exitDy=0;entryX=0.5;entryY=0;entryDx=0;entryDy=0;endArrow=none;endFill=0;" edge="1" parent="pGgXp04c1fejDxyBmcXB-189" source="pGgXp04c1fejDxyBmcXB-155" target="pGgXp04c1fejDxyBmcXB-151">
          <mxGeometry relative="1" as="geometry" />
        </mxCell>
        <mxCell id="pGgXp04c1fejDxyBmcXB-187" style="rounded=0;orthogonalLoop=1;jettySize=auto;html=1;exitX=0.5;exitY=0;exitDx=0;exitDy=0;entryX=0.5;entryY=1;entryDx=0;entryDy=0;endArrow=none;endFill=0;" edge="1" parent="pGgXp04c1fejDxyBmcXB-189" source="pGgXp04c1fejDxyBmcXB-155" target="pGgXp04c1fejDxyBmcXB-122">
          <mxGeometry relative="1" as="geometry" />
        </mxCell>
        <mxCell id="pGgXp04c1fejDxyBmcXB-155" value="4" style="ellipse;whiteSpace=wrap;html=1;fontSize=40;fontColor=#511CFF;" vertex="1" parent="pGgXp04c1fejDxyBmcXB-189">
          <mxGeometry x="530" y="80" width="40" height="40" as="geometry" />
        </mxCell>
        <mxCell id="pGgXp04c1fejDxyBmcXB-186" style="rounded=0;orthogonalLoop=1;jettySize=auto;html=1;exitX=0.5;exitY=1;exitDx=0;exitDy=0;entryX=0.5;entryY=0;entryDx=0;entryDy=0;endArrow=none;endFill=0;" edge="1" parent="pGgXp04c1fejDxyBmcXB-189" source="pGgXp04c1fejDxyBmcXB-156" target="pGgXp04c1fejDxyBmcXB-153">
          <mxGeometry relative="1" as="geometry" />
        </mxCell>
        <mxCell id="pGgXp04c1fejDxyBmcXB-188" style="rounded=0;orthogonalLoop=1;jettySize=auto;html=1;exitX=0.5;exitY=0;exitDx=0;exitDy=0;entryX=0.5;entryY=1;entryDx=0;entryDy=0;endArrow=none;endFill=0;" edge="1" parent="pGgXp04c1fejDxyBmcXB-189" source="pGgXp04c1fejDxyBmcXB-156" target="pGgXp04c1fejDxyBmcXB-122">
          <mxGeometry relative="1" as="geometry" />
        </mxCell>
        <mxCell id="pGgXp04c1fejDxyBmcXB-156" value="6" style="ellipse;whiteSpace=wrap;html=1;fontSize=40;fontColor=#511CFF;" vertex="1" parent="pGgXp04c1fejDxyBmcXB-189">
          <mxGeometry x="750" y="80" width="40" height="40" as="geometry" />
        </mxCell>
        <mxCell id="pGgXp04c1fejDxyBmcXB-182" style="rounded=0;orthogonalLoop=1;jettySize=auto;html=1;exitX=0.5;exitY=0;exitDx=0;exitDy=0;entryX=0.5;entryY=1;entryDx=0;entryDy=0;endArrow=none;endFill=0;" edge="1" parent="pGgXp04c1fejDxyBmcXB-189" source="pGgXp04c1fejDxyBmcXB-150" target="pGgXp04c1fejDxyBmcXB-154">
          <mxGeometry relative="1" as="geometry" />
        </mxCell>
        <mxCell id="pGgXp04c1fejDxyBmcXB-170" style="rounded=0;orthogonalLoop=1;jettySize=auto;html=1;exitX=0.5;exitY=1;exitDx=0;exitDy=0;entryX=0.332;entryY=-0.042;entryDx=0;entryDy=0;entryPerimeter=0;endArrow=none;endFill=0;" edge="1" parent="pGgXp04c1fejDxyBmcXB-189" source="pGgXp04c1fejDxyBmcXB-148" target="pGgXp04c1fejDxyBmcXB-139">
          <mxGeometry relative="1" as="geometry" />
        </mxCell>
        <mxCell id="pGgXp04c1fejDxyBmcXB-190" value="&lt;b&gt;&lt;font style=&quot;font-size: 20px;&quot;&gt;MAX&lt;/font&gt;&lt;/b&gt;" style="text;html=1;strokeColor=none;fillColor=none;align=center;verticalAlign=middle;whiteSpace=wrap;rounded=0;" vertex="1" parent="pGgXp04c1fejDxyBmcXB-189">
          <mxGeometry x="-30" y="5" width="60" height="30" as="geometry" />
        </mxCell>
        <mxCell id="pGgXp04c1fejDxyBmcXB-191" value="&lt;b&gt;&lt;font style=&quot;font-size: 20px;&quot;&gt;MIN&lt;/font&gt;&lt;/b&gt;" style="text;html=1;strokeColor=none;fillColor=none;align=center;verticalAlign=middle;whiteSpace=wrap;rounded=0;" vertex="1" parent="pGgXp04c1fejDxyBmcXB-189">
          <mxGeometry x="-30" y="90" width="60" height="30" as="geometry" />
        </mxCell>
        <mxCell id="pGgXp04c1fejDxyBmcXB-192" value="&lt;b&gt;&lt;font style=&quot;font-size: 20px;&quot;&gt;MAX&lt;/font&gt;&lt;/b&gt;" style="text;html=1;strokeColor=none;fillColor=none;align=center;verticalAlign=middle;whiteSpace=wrap;rounded=0;" vertex="1" parent="pGgXp04c1fejDxyBmcXB-189">
          <mxGeometry x="-30" y="165" width="60" height="30" as="geometry" />
        </mxCell>
        <mxCell id="pGgXp04c1fejDxyBmcXB-193" value="&lt;b&gt;&lt;font style=&quot;font-size: 20px;&quot;&gt;MIN&lt;/font&gt;&lt;/b&gt;" style="text;html=1;strokeColor=none;fillColor=none;align=center;verticalAlign=middle;whiteSpace=wrap;rounded=0;" vertex="1" parent="pGgXp04c1fejDxyBmcXB-189">
          <mxGeometry x="-30" y="250" width="60" height="30" as="geometry" />
        </mxCell>
        <mxCell id="pGgXp04c1fejDxyBmcXB-195" value="" style="endArrow=none;html=1;rounded=0;strokeWidth=4;fillColor=#d80073;strokeColor=#A50040;" edge="1" parent="1">
          <mxGeometry width="50" height="50" relative="1" as="geometry">
            <mxPoint x="254" y="486" as="sourcePoint" />
            <mxPoint x="276" y="464" as="targetPoint" />
          </mxGeometry>
        </mxCell>
        <mxCell id="pGgXp04c1fejDxyBmcXB-215" value="" style="endArrow=none;html=1;rounded=0;strokeWidth=4;fillColor=#d80073;strokeColor=#A50040;" edge="1" parent="1">
          <mxGeometry width="50" height="50" relative="1" as="geometry">
            <mxPoint x="264" y="496" as="sourcePoint" />
            <mxPoint x="286" y="474" as="targetPoint" />
          </mxGeometry>
        </mxCell>
        <mxCell id="pGgXp04c1fejDxyBmcXB-216" value="" style="endArrow=none;html=1;rounded=0;strokeWidth=4;fillColor=#d80073;strokeColor=#A50040;" edge="1" parent="1">
          <mxGeometry width="50" height="50" relative="1" as="geometry">
            <mxPoint x="274" y="506" as="sourcePoint" />
            <mxPoint x="296" y="484" as="targetPoint" />
          </mxGeometry>
        </mxCell>
      </root>
    </mxGraphModel>
  </diagram>
</mxfile>
